<?xml version="1.0" encoding="UTF-8" standalone="no"?>
<svg 
  version="1.1" 
  xmlns="http://www.w3.org/2000/svg" 
  xmlns:xlink="http://www.w3.org/1999/xlink" 
  xmlns:svg="http://www.w3.org/2000/svg"
  xmlns:rdf="http://www.w3.org/1999/02/22-rdf-syntax-ns#"
  xmlns:cc="http://creativecommons.org/ns#"
  xmlns:dc="http://purl.org/dc/elements/1.1/"
  viewBox="0 0 768 768"
  width="768"
  height="768"
>
<style>svg {background-color: white; }</style>"
<metadata id="metadata1">
Created by https://svgstud.io and licensed under CC-BY-SA 4.0 license. Please attribute https://svgstud.io
</metadata>
<metadata id="prompt">
the shadow of a pikachu, just the black siluette, nothing else
</metadata>
<metadata id="version">
7
</metadata>
<metadata id="metadata2">
<rdf:RDF>
<cc:Work
    rdf:about="">
    <cc:license
    rdf:resource="http://creativecommons.org/licenses/by-sa/4.0/" />
    <dc:creator>
        <cc:Agent>
            <dc:title>https://svgstud.io</dc:title>
        </cc:Agent>
    </dc:creator>
</cc:Work>
<cc:License
    rdf:about="http://creativecommons.org/licenses/by-sa/4.0/">
    <cc:permits
    rdf:resource="http://creativecommons.org/ns#Reproduction" />
    <cc:permits
    rdf:resource="http://creativecommons.org/ns#Distribution" />
    <cc:requires
    rdf:resource="http://creativecommons.org/ns#Notice" />
    <cc:requires
    rdf:resource="http://creativecommons.org/ns#Attribution" />
    <cc:permits
    rdf:resource="http://creativecommons.org/ns#DerivativeWorks" />
    <cc:requires
    rdf:resource="http://creativecommons.org/ns#ShareAlike" />
</cc:License>
</rdf:RDF>
</metadata>
<metadata id="uid">
75903a3e0668a077d46f746190bfc8b17e29aebbf38bbbb01f840894d0f20ce1
</metadata>
<path stroke="none" fill="black" fill-rule="evenodd" d="M396.50,687.45C383.30,687.63 370.25,687.59 367.50,687.37C364.75,687.14 357.10,686.27 350.50,685.44C343.90,684.60 334.23,683.04 329.00,681.95C323.77,680.87 314.01,678.41 307.29,676.49C300.58,674.57 289.80,670.96 283.35,668.46C276.90,665.97 269.28,662.59 266.43,660.96C263.57,659.32 260.68,657.32 259.99,656.49C258.94,655.23 259.19,655.00 261.63,655.00C263.21,655.00 271.48,657.27 280.00,660.04C288.52,662.81 300.90,666.41 307.50,668.05C314.10,669.68 325.57,671.91 333.00,672.99C340.43,674.08 353.93,675.45 363.00,676.04C372.07,676.63 385.12,676.83 392.00,676.48C398.88,676.13 410.17,675.21 417.10,674.43C424.03,673.65 434.03,672.12 439.33,671.04C444.62,669.95 452.67,668.11 457.22,666.95C461.78,665.79 471.08,663.04 477.89,660.82C484.71,658.61 495.29,654.66 501.39,652.04C507.50,649.42 518.01,644.51 524.75,641.13C531.49,637.75 541.91,632.07 547.90,628.52C553.88,624.96 563.45,618.60 569.14,614.37C574.84,610.15 584.23,602.76 590.00,597.96C595.77,593.15 605.01,584.56 610.51,578.86C616.02,573.16 623.97,564.19 628.19,558.91C632.40,553.64 639.27,544.08 643.45,537.68C647.63,531.27 653.48,521.41 656.46,515.76C659.45,510.12 663.53,501.68 665.55,497.00C667.57,492.32 670.97,483.65 673.10,477.72C675.24,471.79 678.33,461.89 679.97,455.72C681.60,449.55 683.63,440.24 684.46,435.02C685.29,429.81 686.47,417.47 687.08,407.59C687.89,394.36 687.89,385.73 687.06,374.87C686.43,366.75 685.31,356.59 684.55,352.29C683.79,347.99 682.42,341.56 681.50,338.00C680.58,334.44 678.58,329.03 677.06,325.96C675.54,322.90 672.37,314.57 670.01,307.45C667.66,300.33 663.33,288.77 660.41,281.77C657.48,274.76 650.11,259.38 644.04,247.58C637.97,235.77 633.00,225.49 633.00,224.71C633.00,223.94 631.15,220.45 628.90,216.96C626.64,213.47 621.06,206.08 616.51,200.55C611.96,195.02 602.22,184.65 594.86,177.50C587.51,170.35 576.84,160.95 571.14,156.61C563.08,150.47 560.59,149.03 559.91,150.11C559.43,150.88 559.02,154.88 559.02,159.00C559.01,163.12 558.32,175.15 557.50,185.73C556.67,196.31 555.31,210.26 554.48,216.73C553.65,223.20 552.28,232.32 551.44,237.00C550.60,241.68 548.60,250.45 546.99,256.50C545.39,262.55 542.71,271.23 541.04,275.78C539.37,280.33 536.65,286.73 535.00,290.00C533.35,293.27 532.00,297.04 532.00,298.39C532.00,299.73 534.04,306.04 536.53,312.42C539.02,318.79 542.15,328.84 543.47,334.75C544.79,340.66 546.58,350.28 547.44,356.13C548.30,361.97 548.99,371.42 548.98,377.13C548.97,382.83 548.34,390.45 547.57,394.06C546.81,397.67 545.02,403.40 543.59,406.78C542.17,410.17 541.00,413.23 541.00,413.59C541.00,413.94 542.01,414.01 543.25,413.73C544.49,413.45 552.70,411.12 561.50,408.56C572.71,405.29 580.04,403.74 586.00,403.38C593.38,402.92 594.92,403.12 597.71,404.89C599.47,406.01 601.84,408.72 602.96,410.92C604.39,413.73 605.00,416.85 605.00,421.40C605.00,425.82 604.18,430.20 602.41,435.19C600.99,439.21 597.50,446.75 594.66,451.95C591.82,457.14 587.22,463.74 584.43,466.60C581.64,469.47 575.56,474.28 570.93,477.31C566.29,480.33 555.30,486.35 546.50,490.69C537.70,495.03 528.14,499.55 525.25,500.74C520.55,502.67 520.00,503.20 520.00,505.92C520.00,507.58 521.36,516.90 523.02,526.62C524.68,536.35 526.71,548.14 527.53,552.83C528.35,557.51 529.19,561.53 529.41,561.75C529.63,561.96 533.73,560.78 538.52,559.11C543.88,557.24 549.20,554.52 552.36,552.05C555.19,549.83 559.52,546.38 562.00,544.37C564.48,542.36 570.61,538.75 575.64,536.35C580.66,533.95 585.25,531.40 585.85,530.69C586.44,529.97 588.31,521.86 590.00,512.65C591.70,503.45 593.50,494.81 594.02,493.46C594.53,492.11 595.31,491.00 595.75,491.00C596.19,491.00 597.67,491.75 599.03,492.68C600.39,493.60 606.54,499.03 612.71,504.74C618.87,510.45 624.89,516.71 626.09,518.64C628.13,521.94 628.19,522.62 627.10,529.33C626.46,533.27 624.83,538.75 623.48,541.50C622.12,544.25 617.02,551.45 612.14,557.51C607.26,563.57 598.00,573.58 591.58,579.76C585.15,585.94 575.51,594.54 570.16,598.87C564.81,603.20 555.50,610.01 549.46,613.98C543.43,617.96 534.53,623.21 529.68,625.65C524.84,628.09 513.59,633.25 504.68,637.12C495.78,640.99 482.65,646.10 475.50,648.48C468.35,650.86 457.10,653.97 450.50,655.39C443.90,656.80 434.45,658.63 429.50,659.45C424.55,660.26 415.32,661.39 409.00,661.96C402.68,662.53 393.34,662.99 388.25,663.00C383.16,663.00 379.00,662.75 379.00,662.43C379.00,662.12 379.52,660.89 380.16,659.68C380.80,658.48 385.56,652.86 390.73,647.18C396.83,640.50 401.18,634.68 403.07,630.68C404.68,627.28 406.00,623.68 406.00,622.68C406.00,620.99 404.93,620.88 390.19,621.18C374.38,621.50 374.38,621.50 365.94,626.44C361.30,629.15 355.88,632.17 353.90,633.14C351.93,634.10 346.52,635.45 341.88,636.12C335.49,637.04 331.11,637.07 323.70,636.22C317.49,635.52 312.01,634.24 308.65,632.70C305.74,631.37 301.65,628.53 299.54,626.39C297.44,624.25 294.32,619.58 292.61,616.00C289.50,609.50 289.50,609.50 289.50,583.50C289.50,569.20 289.87,552.10 290.32,545.50C291.15,533.50 291.15,533.50 284.82,530.50C281.35,528.86 274.23,524.62 269.00,521.09C263.77,517.55 256.35,512.18 252.50,509.14C248.65,506.11 242.44,500.54 238.70,496.77C234.96,493.00 230.57,487.82 228.95,485.26C226.48,481.37 226.00,479.57 226.00,474.25C226.00,470.62 226.63,466.68 227.47,465.06C228.28,463.49 231.09,460.65 233.72,458.73C236.35,456.82 246.60,450.53 256.50,444.76C266.40,438.99 275.94,433.53 277.70,432.64C279.46,431.74 281.52,431.00 282.28,431.00C283.04,431.00 286.55,433.74 290.08,437.10C293.61,440.45 299.71,445.74 303.62,448.85C307.54,451.96 312.38,455.76 314.37,457.29C317.80,459.93 318.00,460.41 317.99,465.79C317.98,468.93 316.89,477.80 315.57,485.50C314.25,493.20 312.04,506.02 310.67,514.00C309.29,521.98 307.35,534.58 306.35,542.00C305.00,552.11 304.54,562.16 304.52,582.00C304.50,605.00 304.72,608.91 306.19,611.58C307.11,613.27 309.93,615.74 312.43,617.07C315.75,618.84 317.42,619.22 318.55,618.50C319.40,617.95 321.59,613.90 323.41,609.50C325.23,605.10 327.95,598.80 329.45,595.50C332.01,589.90 332.26,589.66 333.12,591.89C333.63,593.21 334.53,598.61 335.12,603.89C335.71,609.18 336.38,614.51 336.62,615.75C336.90,617.26 337.75,618.00 339.20,618.00C340.39,618.00 343.22,617.10 345.48,616.01C347.75,614.91 354.28,610.16 359.99,605.46C370.39,596.90 370.39,596.90 384.94,597.70C392.95,598.14 407.82,598.50 418.00,598.50C428.18,598.50 446.18,598.12 458.00,597.64C479.50,596.79 479.50,596.79 487.68,603.39C495.17,609.44 496.26,610.00 500.57,610.00C503.15,610.00 507.07,609.46 509.27,608.80C511.90,608.01 513.91,606.56 515.13,604.55C516.38,602.51 516.99,599.59 517.00,595.74C517.00,592.58 516.09,583.35 514.97,575.24C513.85,567.13 512.22,556.45 511.34,551.50C510.47,546.55 509.37,541.83 508.91,541.00C508.35,540.01 508.05,541.04 508.03,544.04C508.00,548.13 507.54,549.02 503.25,553.10C500.64,555.60 495.80,559.90 492.50,562.67C489.20,565.43 484.66,568.90 482.40,570.38C480.15,571.86 475.42,573.67 471.90,574.41C468.38,575.15 465.21,575.47 464.85,575.13C464.49,574.78 463.30,571.27 462.20,567.31C460.19,560.12 460.19,560.12 462.85,542.14C464.31,532.26 465.80,523.86 466.17,523.49C466.54,523.12 473.23,523.79 481.04,524.97C488.85,526.15 497.39,527.97 500.03,529.01C503.55,530.40 504.94,530.58 505.27,529.70C505.52,529.04 504.68,520.40 503.42,510.50C502.16,500.60 500.42,488.00 499.57,482.50C498.71,477.00 498.01,471.54 498.01,470.36C498.00,469.18 498.79,467.91 499.75,467.54C500.71,467.16 503.46,466.49 505.86,466.04C509.42,465.37 510.54,465.54 511.98,466.98C512.95,467.95 514.30,471.16 515.00,474.12C515.69,477.08 516.58,480.10 516.97,480.84C517.50,481.84 520.21,480.47 527.53,475.51C532.94,471.84 540.55,466.44 544.44,463.51C548.32,460.58 556.67,453.72 563.00,448.26C569.33,442.80 577.00,435.44 580.06,431.91C583.12,428.39 586.38,424.39 587.31,423.03C588.24,421.67 589.00,419.53 589.00,418.28C589.00,416.54 588.43,416.00 586.61,416.00C585.30,416.00 580.42,417.10 575.78,418.45C571.14,419.79 559.27,423.90 549.42,427.57C539.56,431.24 527.45,436.05 522.50,438.27C517.55,440.48 509.86,444.26 505.42,446.65C500.97,449.04 496.36,451.00 495.17,451.00C493.97,451.00 493.00,450.37 493.00,449.59C493.00,448.81 494.76,445.96 496.90,443.24C499.05,440.53 504.26,435.20 508.47,431.40C512.69,427.61 518.18,421.81 520.67,418.51C523.17,415.22 526.31,410.34 527.67,407.67C529.03,404.99 529.92,402.58 529.65,402.32C529.39,402.05 528.12,402.39 526.84,403.07C525.55,403.74 522.48,405.94 520.00,407.96C517.52,409.98 514.12,412.58 512.44,413.75C510.76,414.91 508.22,416.16 506.80,416.51C504.53,417.08 503.74,416.49 500.11,411.42C497.85,408.26 496.00,405.35 496.00,404.96C496.00,404.56 498.14,403.70 500.75,403.05C503.36,402.39 508.27,400.53 511.66,398.92C515.06,397.30 520.53,393.95 523.82,391.47C527.57,388.66 530.22,385.79 530.91,383.84C531.51,382.11 532.00,376.53 532.00,371.43C532.00,366.17 530.94,355.95 529.56,347.83C528.21,339.95 525.96,329.55 524.55,324.71C523.14,319.88 520.36,312.69 518.37,308.74C516.38,304.79 513.06,298.85 510.99,295.53C508.92,292.21 506.92,288.49 506.54,287.25C506.17,286.01 506.17,285.00 506.55,285.00C506.93,285.00 508.80,286.37 510.71,288.05C513.57,290.56 514.44,290.88 515.67,289.86C516.50,289.17 518.64,285.66 520.44,282.06C522.25,278.45 524.67,272.57 525.83,269.00C527.00,265.43 529.29,256.43 530.94,249.00C532.58,241.57 535.07,227.62 536.47,218.00C537.87,208.38 539.48,193.97 540.04,186.00C540.61,178.03 541.42,159.35 541.84,144.50C542.27,129.65 542.43,116.94 542.20,116.25C541.97,115.56 541.22,115.00 540.53,115.00C539.84,115.00 538.05,115.96 536.55,117.14C535.05,118.32 530.43,123.15 526.29,127.89C522.14,132.63 514.58,142.80 509.48,150.50C504.39,158.20 498.23,168.11 495.80,172.53C493.37,176.95 488.65,186.40 485.31,193.53C481.97,200.66 477.16,212.89 474.62,220.70C472.07,228.52 469.92,236.80 469.82,239.11C469.70,242.39 470.16,243.71 471.94,245.15C473.20,246.17 474.53,247.00 474.90,247.00C475.28,247.00 476.84,244.41 478.37,241.25C479.90,238.09 484.92,228.75 489.52,220.50C494.12,212.25 500.65,199.65 504.05,192.50C507.44,185.35 512.82,174.10 516.00,167.50C519.18,160.90 522.73,154.64 523.89,153.60C525.55,152.09 526.00,152.00 526.00,153.16C526.00,153.97 525.28,157.07 524.39,160.05C523.51,163.02 520.10,170.82 516.81,177.37C513.53,183.92 508.80,194.73 506.30,201.39C503.81,208.05 500.72,216.98 499.44,221.23C498.16,225.48 496.19,233.36 495.05,238.73C493.92,244.10 492.76,249.51 492.47,250.75C492.19,251.99 491.43,253.00 490.79,253.00C490.14,253.00 488.34,251.79 486.80,250.31C484.92,248.50 483.65,247.95 482.98,248.62C482.43,249.17 481.81,252.52 481.60,256.06C481.39,259.60 481.17,262.84 481.11,263.25C481.05,263.66 480.44,264.00 479.75,264.00C479.06,263.99 476.48,262.62 474.00,260.94C471.52,259.26 466.09,256.15 461.92,254.02C457.74,251.89 449.86,248.59 444.39,246.68C438.92,244.78 430.63,242.40 425.97,241.39C419.63,240.02 413.47,239.57 401.50,239.63C389.16,239.68 383.21,240.18 375.50,241.83C370.00,243.00 361.90,245.14 357.50,246.58C353.10,248.02 344.53,251.66 338.46,254.67C332.39,257.68 323.26,263.24 318.17,267.03C312.63,271.16 308.76,273.44 308.53,272.71C308.32,272.05 307.63,268.38 307.01,264.57C306.39,260.76 305.39,256.71 304.80,255.57C304.20,254.43 300.52,249.69 296.61,245.04C292.70,240.39 282.80,229.88 274.61,221.68C266.42,213.48 253.82,202.05 246.61,196.29C239.40,190.52 227.57,181.86 220.32,177.03C213.07,172.21 202.65,165.95 197.16,163.13C191.67,160.31 184.39,157.29 180.99,156.42C177.59,155.55 173.77,155.09 172.52,155.41C171.27,155.72 170.01,156.85 169.73,157.91C169.46,158.97 170.05,165.46 171.05,172.32C172.05,179.18 174.05,189.45 175.48,195.15C176.92,200.84 179.60,210.00 181.44,215.50C183.28,221.00 187.53,231.43 190.88,238.67C194.24,245.92 198.40,254.47 200.13,257.67C201.86,260.88 205.67,267.61 208.60,272.62C211.52,277.64 216.27,284.39 219.14,287.62C222.02,290.86 226.82,296.05 229.82,299.17C235.28,304.84 235.28,304.84 234.60,310.17C234.23,313.10 233.67,316.96 233.35,318.75C232.95,321.02 232.23,322.00 230.95,322.00C229.95,322.00 226.06,319.91 222.31,317.35C218.57,314.79 212.35,310.12 208.50,306.97C204.65,303.83 199.14,298.75 196.25,295.69C193.36,292.63 191.00,289.61 191.00,288.99C191.00,288.38 191.50,286.89 192.12,285.68C192.73,284.48 194.92,281.70 196.98,279.50C199.03,277.30 200.98,274.74 201.30,273.81C201.63,272.88 200.91,270.69 199.69,268.89C198.49,267.11 196.99,265.49 196.38,265.29C195.76,265.08 191.46,269.21 186.83,274.45C178.40,283.98 178.40,283.98 177.22,302.24C176.57,312.28 175.53,322.41 174.90,324.75C174.27,327.09 173.41,329.00 173.00,329.00C172.58,329.00 170.08,327.27 167.43,325.15C164.59,322.87 161.16,318.69 159.02,314.90C157.03,311.39 154.72,308.38 153.88,308.22C152.84,308.01 151.08,310.67 148.25,316.71C145.98,321.55 142.26,329.55 139.98,334.50C137.69,339.45 134.49,346.82 132.87,350.89C131.23,354.98 129.82,360.52 129.71,363.29C129.50,368.31 129.50,368.31 146.50,373.62C155.85,376.54 163.83,378.94 164.23,378.96C164.63,378.98 165.93,377.09 167.12,374.75C168.31,372.41 171.49,367.24 174.17,363.25C176.86,359.26 179.47,356.00 179.97,356.00C180.47,356.00 181.16,356.44 181.49,356.99C181.83,357.53 182.79,363.27 183.64,369.74C184.48,376.21 185.64,382.07 186.22,382.77C186.80,383.47 191.83,386.48 197.39,389.46C202.95,392.45 212.64,397.56 218.92,400.83C228.12,405.62 230.67,407.43 232.04,410.14C232.97,411.99 234.26,415.75 234.91,418.51C235.55,421.26 236.47,424.14 236.94,424.91C237.61,425.99 238.53,425.46 241.08,422.57C242.88,420.51 246.86,417.14 249.93,415.06C252.99,412.98 257.36,410.34 259.63,409.18C261.90,408.03 264.03,407.37 264.38,407.71C264.72,408.05 265.00,409.85 265.00,411.71C265.00,413.56 264.14,416.75 263.09,418.79C262.04,420.83 259.90,423.69 258.34,425.15C256.78,426.61 251.97,430.32 247.64,433.40C243.32,436.48 239.41,439.00 238.95,439.00C238.49,439.00 230.10,435.16 220.31,430.46C210.51,425.76 199.24,420.06 195.25,417.78C189.49,414.49 187.61,412.82 186.08,409.57C185.02,407.33 183.17,401.79 181.97,397.25C180.76,392.71 179.43,389.00 178.99,389.00C178.56,389.00 175.85,390.58 172.97,392.52C170.09,394.46 163.82,398.07 159.02,400.54C154.23,403.02 149.39,406.05 148.27,407.27C146.81,408.87 145.32,414.02 143.01,425.50C141.24,434.30 139.67,441.64 139.51,441.80C139.36,441.97 137.16,440.79 134.64,439.19C132.11,437.59 125.28,434.15 119.46,431.55C113.64,428.96 108.23,427.08 107.44,427.38C106.59,427.71 106.01,429.27 106.02,431.22C106.03,433.02 106.68,439.00 107.46,444.50C108.24,450.00 109.82,458.84 110.97,464.13C112.12,469.43 114.85,479.09 117.03,485.59C119.21,492.09 121.00,498.35 121.00,499.50C121.00,500.99 120.07,501.86 117.75,502.54C115.07,503.33 114.55,503.94 114.79,506.00C114.95,507.38 117.69,513.68 120.89,520.02C124.08,526.35 129.31,535.75 132.50,540.91C135.69,546.06 142.56,555.51 147.76,561.89C152.97,568.28 161.56,577.92 166.86,583.33C172.16,588.74 181.22,597.31 187.00,602.39C192.78,607.47 201.29,614.49 205.92,617.99C210.55,621.49 218.88,627.12 224.42,630.50C229.96,633.89 238.39,638.77 243.15,641.35C247.91,643.94 252.38,646.75 253.09,647.60C254.15,648.89 254.01,649.87 252.22,653.33C251.04,655.62 249.20,659.60 248.13,662.16C247.06,664.73 245.16,667.38 243.90,668.05C242.64,668.73 239.08,669.24 235.97,669.20C232.87,669.15 228.35,668.34 225.92,667.39C223.49,666.44 218.57,663.79 215.00,661.50C211.43,659.20 202.65,652.49 195.50,646.58C182.54,635.87 182.49,635.84 178.00,636.35C175.53,636.63 169.45,637.57 164.50,638.43C159.55,639.29 151.64,639.99 146.93,640.00C142.02,640.00 136.09,639.33 133.04,638.42C128.79,637.16 126.37,635.48 121.10,630.17C117.47,626.50 110.67,619.07 106.00,613.66C101.33,608.25 95.75,601.60 93.62,598.89C90.17,594.53 89.68,593.20 89.24,587.17C88.98,583.43 89.30,577.17 89.96,573.26C90.70,568.83 92.21,564.49 93.94,561.76C95.63,559.09 100.41,554.60 106.11,550.34C111.28,546.48 116.11,542.58 116.84,541.69C118.01,540.28 117.06,538.10 109.72,525.28C105.06,517.15 99.89,507.80 98.24,504.50C96.59,501.20 93.43,494.23 91.21,489.00C89.00,483.77 85.60,474.76 83.67,468.96C81.73,463.16 79.24,454.83 78.12,450.46C77.01,446.08 75.19,437.42 74.07,431.20C72.96,424.99 71.54,412.84 70.93,404.20C70.31,395.57 70.10,383.55 70.46,377.50C70.81,371.45 71.76,360.88 72.56,354.00C73.37,347.12 74.73,337.90 75.60,333.50C76.46,329.10 78.26,321.00 79.61,315.50C80.95,310.00 83.93,300.10 86.22,293.50C88.51,286.90 94.59,273.09 99.72,262.81C104.85,252.53 112.11,239.48 115.85,233.81C119.60,228.14 126.41,218.78 130.99,213.00C135.57,207.22 144.22,197.73 150.20,191.90C161.08,181.31 161.08,181.31 160.40,166.40C159.73,151.74 159.65,151.38 155.91,143.88C153.82,139.69 151.14,133.39 149.96,129.88C148.40,125.28 147.97,122.26 148.41,119.04C148.75,116.59 150.23,112.83 151.72,110.69C153.20,108.55 158.93,103.41 164.46,99.26C169.98,95.12 178.14,89.97 182.58,87.82C188.75,84.84 192.35,83.77 197.79,83.31C202.17,82.95 206.57,83.18 209.21,83.92C211.57,84.59 214.94,86.34 216.71,87.81C218.47,89.29 223.33,94.78 227.51,100.00C231.69,105.22 236.68,111.86 238.61,114.75C240.53,117.64 242.77,120.00 243.58,120.00C244.38,120.00 248.67,118.18 253.11,115.94C257.55,113.71 265.97,109.93 271.84,107.55C277.70,105.16 288.12,101.38 295.00,99.14C301.88,96.91 312.00,93.98 317.50,92.62C323.00,91.27 331.77,89.46 337.00,88.60C342.23,87.73 351.00,86.50 356.50,85.86C362.00,85.22 376.18,84.70 388.00,84.72C401.29,84.73 414.72,85.36 423.17,86.35C430.69,87.24 442.86,89.30 450.22,90.94C457.58,92.58 468.97,95.54 475.52,97.53C482.07,99.51 491.49,102.71 496.45,104.62C501.41,106.54 507.92,109.43 510.91,111.05C513.91,112.67 516.73,114.00 517.18,114.00C517.63,114.00 522.39,109.53 527.75,104.06C535.09,96.57 538.98,93.44 543.50,91.35C548.42,89.09 550.94,88.58 557.50,88.54C563.95,88.51 566.43,88.96 570.30,90.86C572.94,92.16 579.47,97.36 584.80,102.41C590.14,107.45 597.88,113.76 602.00,116.42C606.12,119.08 613.33,124.23 618.00,127.86C622.67,131.49 632.59,140.55 640.04,147.98C647.48,155.42 659.35,167.83 666.40,175.57C673.45,183.32 681.64,193.44 684.61,198.07C687.57,202.71 690.73,208.70 691.63,211.39C692.72,214.69 693.07,218.03 692.69,221.68C692.37,224.85 691.06,228.94 689.53,231.54C688.10,233.99 685.48,236.76 683.71,237.70C681.40,238.94 677.34,239.53 669.25,239.82C660.42,240.13 658.00,240.52 658.00,241.63C658.00,242.40 659.08,244.76 660.41,246.86C661.74,248.96 665.40,255.81 668.55,262.09C671.70,268.37 676.26,278.44 678.69,284.48C681.12,290.52 684.61,300.65 686.46,306.99C688.30,313.32 690.97,324.19 692.40,331.12C693.83,338.06 695.73,349.99 696.61,357.62C697.85,368.34 698.10,377.41 697.72,397.50C697.39,414.40 696.64,427.17 695.56,434.00C694.65,439.77 692.79,449.23 691.42,455.00C690.05,460.77 687.32,470.45 685.35,476.50C682.29,485.92 681.59,489.89 680.50,504.11C679.79,513.25 678.71,521.67 678.09,522.83C677.47,523.98 675.19,525.46 673.01,526.11C670.84,526.77 668.23,528.07 667.22,529.01C666.20,529.96 660.34,537.65 654.19,546.11C648.04,554.58 639.83,565.33 635.95,570.00C632.07,574.67 623.40,584.06 616.69,590.85C609.99,597.64 598.76,607.97 591.74,613.79C584.72,619.61 573.69,627.92 567.24,632.25C560.78,636.57 551.23,642.51 546.00,645.44C540.77,648.36 532.23,652.98 527.00,655.70C521.77,658.42 513.67,662.27 509.00,664.25C504.32,666.23 494.88,669.71 488.00,671.97C481.12,674.24 469.20,677.65 461.50,679.56C453.81,681.47 441.43,683.95 434.00,685.07C424.03,686.59 414.23,687.21 396.50,687.45zM487.00,633.33C488.93,633.01 490.86,632.53 491.30,632.28C491.74,632.02 490.05,630.51 487.54,628.92C485.03,627.33 481.20,625.12 479.03,624.01C476.24,622.59 473.12,622.00 468.42,622.00C462.50,622.00 461.90,622.17 463.05,623.56C463.76,624.41 466.40,626.32 468.91,627.79C471.42,629.26 475.73,631.25 478.49,632.20C481.61,633.28 484.82,633.71 487.00,633.33zM386.00,572.80C381.88,572.70 375.57,572.47 372.00,572.30C368.43,572.13 364.50,571.76 363.28,571.48C361.30,571.03 361.18,570.70 362.20,568.47C362.82,567.09 366.30,564.12 369.92,561.86C373.54,559.60 377.74,556.60 379.25,555.19C380.76,553.78 382.00,552.06 382.00,551.37C382.00,550.68 381.06,548.51 379.90,546.56C378.75,544.60 377.28,543.00 376.65,543.00C376.02,543.01 374.07,543.88 372.32,544.95C370.57,546.01 365.84,550.85 361.81,555.69C357.78,560.54 353.45,565.96 352.17,567.75C350.90,569.54 349.25,571.00 348.50,571.00C347.75,571.00 343.15,566.61 338.28,561.25C333.41,555.89 326.56,547.90 323.07,543.51C316.72,535.52 316.72,535.52 317.33,522.51C317.66,515.35 319.04,501.85 320.40,492.50C321.76,483.15 323.31,473.55 323.85,471.17C324.38,468.79 325.09,466.57 325.43,466.24C325.76,465.91 333.79,466.70 343.26,467.99C356.16,469.76 367.30,470.50 387.50,470.93C413.30,471.47 414.49,471.58 414.17,473.40C413.99,474.44 412.00,478.22 409.74,481.79C406.64,486.70 403.74,489.65 397.83,493.89C393.53,496.98 388.21,500.73 386.01,502.24C383.31,504.09 382.00,505.72 382.01,507.24C382.02,508.48 382.67,511.93 383.46,514.90C384.25,517.87 385.37,520.77 385.95,521.35C386.69,522.09 388.27,521.16 391.25,518.22C393.59,515.91 397.98,510.23 401.00,505.60C404.02,500.96 407.07,496.92 407.77,496.61C408.52,496.28 413.07,500.21 418.77,506.12C424.12,511.66 428.85,516.81 429.28,517.56C429.71,518.31 429.78,520.04 429.43,521.40C429.09,522.77 424.16,532.12 418.47,542.19C412.79,552.26 406.59,563.02 404.71,566.10C401.72,570.97 400.78,571.78 397.39,572.34C395.25,572.69 390.12,572.90 386.00,572.80zM173.63,518.49C172.31,520.30 172.23,520.29 171.13,518.25C170.51,517.08 170.00,515.41 170.00,514.53C170.00,513.65 168.49,511.42 166.64,509.57C164.79,507.73 161.42,504.98 159.14,503.47C156.86,501.97 155.00,500.13 155.00,499.39C155.00,498.66 157.32,497.06 160.15,495.84C164.84,493.82 165.55,493.07 168.16,487.31C169.73,483.84 171.23,481.00 171.50,481.00C171.76,481.00 173.52,484.06 175.40,487.81C177.29,491.55 179.47,495.14 180.24,495.79C181.02,496.43 183.42,497.33 185.57,497.77C187.89,498.26 189.61,499.23 189.79,500.17C189.99,501.20 188.20,502.83 184.67,504.82C181.68,506.50 178.28,509.10 177.12,510.58C175.95,512.06 175.00,514.02 175.00,514.94C175.00,515.86 174.38,517.46 173.63,518.49zM298.73,514.00C299.45,514.00 300.45,512.94 300.95,511.63C301.44,510.33 303.09,500.39 304.61,489.54C306.57,475.52 307.07,469.34 306.34,468.18C305.78,467.29 300.86,463.28 295.41,459.28C289.96,455.28 284.24,451.31 282.71,450.46C280.05,448.98 279.64,449.06 273.71,452.32C270.29,454.19 261.98,458.76 255.23,462.46C248.49,466.17 242.32,470.13 241.53,471.26C240.42,472.84 240.35,473.79 241.21,475.40C241.82,476.56 243.04,478.07 243.91,478.76C244.79,479.46 252.71,484.92 261.52,490.90C270.34,496.88 282.02,504.52 287.48,507.88C292.94,511.25 298.00,514.00 298.73,514.00zM386.00,464.84C374.73,464.76 364.15,464.52 362.50,464.31C360.85,464.09 355.45,463.25 350.50,462.43C345.55,461.61 337.68,459.78 333.02,458.37C328.35,456.95 321.83,454.44 318.52,452.78C315.21,451.12 309.57,447.70 306.00,445.18C302.43,442.66 296.01,437.69 291.75,434.13C287.48,430.58 282.20,425.36 280.02,422.52C277.83,419.69 274.72,414.45 273.10,410.88C271.48,407.31 269.46,401.71 268.62,398.44C267.77,395.17 266.34,386.88 265.43,380.00C264.12,370.10 263.88,362.35 264.28,342.72C264.79,317.93 264.79,317.93 258.74,312.72C255.42,309.85 249.05,304.20 244.60,300.17C240.14,296.14 233.63,289.61 230.11,285.67C226.60,281.73 221.75,275.85 219.35,272.62C216.94,269.39 212.04,261.87 208.45,255.91C204.86,249.95 199.43,239.77 196.38,233.29C193.33,226.80 189.29,217.50 187.41,212.62C185.52,207.74 182.84,199.41 181.46,194.12C180.07,188.83 178.66,181.01 178.32,176.75C177.87,171.06 178.02,169.00 178.90,169.00C179.56,169.00 181.13,170.12 182.39,171.48C183.66,172.84 186.41,176.78 188.51,180.23C190.61,183.68 194.88,190.55 198.00,195.50C201.12,200.45 207.83,211.57 212.93,220.21C218.02,228.84 222.78,236.40 223.50,237.00C224.53,237.85 224.95,237.24 225.48,234.14C225.84,231.96 226.73,229.39 227.44,228.41C228.62,226.80 229.13,227.17 233.12,232.47C235.53,235.67 241.02,242.61 245.33,247.90C249.63,253.18 255.03,259.22 257.33,261.32C259.62,263.43 266.68,269.47 273.00,274.75C279.32,280.03 286.23,285.96 288.33,287.92C290.44,289.89 293.06,293.22 294.14,295.32C295.24,297.45 295.98,300.55 295.81,302.32C295.51,305.44 295.40,305.51 289.83,305.80C286.72,305.96 283.69,306.66 283.12,307.36C282.54,308.05 281.36,312.87 280.48,318.06C279.61,323.25 278.63,334.70 278.31,343.50C277.95,353.28 278.19,364.16 278.93,371.50C279.60,378.10 280.80,386.44 281.60,390.03C282.40,393.62 284.06,398.21 285.28,400.23C286.50,402.24 290.07,406.55 293.21,409.79C298.21,414.96 299.81,415.95 306.21,417.83C310.22,419.01 318.68,420.85 325.00,421.92C331.32,422.98 340.77,424.36 346.00,424.98C351.23,425.60 365.18,426.36 377.00,426.67C389.54,427.00 403.76,426.78 411.12,426.13C418.06,425.53 430.44,423.69 438.62,422.06C446.80,420.42 457.04,418.17 461.36,417.05C465.69,415.94 469.63,415.27 470.11,415.57C470.60,415.87 471.00,416.76 471.00,417.55C471.00,418.34 468.70,425.17 465.88,432.74C463.07,440.31 459.69,448.62 458.39,451.21C456.15,455.64 455.62,456.03 449.26,457.92C445.54,459.02 438.45,460.61 433.50,461.45C428.55,462.29 420.45,463.42 415.50,463.98C410.55,464.53 397.27,464.92 386.00,464.84zM419.00,420.39C416.45,420.70 412.76,420.38 410.50,419.65C408.30,418.93 405.38,417.75 404.00,417.01C402.62,416.28 399.81,414.32 397.75,412.67C395.69,411.02 394.00,409.07 394.00,408.33C394.00,407.29 396.76,407.00 406.55,407.00C414.38,407.00 421.71,406.41 426.04,405.42C429.85,404.56 433.69,403.99 434.58,404.17C435.87,404.43 435.35,405.76 431.98,410.81C429.66,414.27 426.80,417.73 425.63,418.48C424.46,419.23 421.48,420.09 419.00,420.39zM330.29,402.96C325.46,402.93 319.76,402.29 317.62,401.53C315.49,400.77 312.17,398.65 310.25,396.82C308.32,395.00 305.91,391.65 304.89,389.39C303.87,387.13 302.52,381.83 301.89,377.61C301.02,371.76 301.03,368.48 301.95,363.73C302.62,360.30 304.24,355.63 305.56,353.35C306.89,351.07 310.00,347.41 312.47,345.23C314.96,343.05 318.99,340.70 321.45,340.01C324.08,339.28 327.74,339.03 330.33,339.42C332.76,339.79 336.74,341.35 339.19,342.91C341.64,344.46 345.27,347.72 347.27,350.15C349.26,352.58 351.81,356.73 352.95,359.38C354.08,362.03 355.48,367.21 356.05,370.90C356.79,375.62 356.78,379.04 356.02,382.41C355.43,385.05 354.23,388.62 353.36,390.35C352.49,392.08 350.59,394.78 349.14,396.34C347.69,397.90 344.83,400.04 342.79,401.09C339.94,402.56 337.04,402.99 330.29,402.96zM415.67,394.96C414.48,394.94 412.32,394.28 410.87,393.49C409.42,392.70 407.96,391.33 407.62,390.44C407.27,389.55 407.25,388.41 407.56,387.91C407.87,387.41 411.02,387.00 414.56,387.00C421.00,387.00 421.00,387.00 421.00,390.39C421.00,392.56 420.43,394.00 419.42,394.39C418.55,394.73 416.86,394.98 415.67,394.96zM492.00,385.62C488.43,385.80 484.09,385.50 482.37,384.97C480.64,384.44 477.61,382.33 475.63,380.29C473.65,378.25 471.04,374.54 469.84,372.04C468.30,368.82 467.53,364.95 467.21,358.72C466.78,350.44 466.93,349.58 469.91,343.54C471.85,339.59 474.95,335.43 477.98,332.71C480.97,330.02 484.70,327.79 487.50,327.00C491.00,326.02 492.98,325.98 495.80,326.82C497.83,327.44 501.22,329.61 503.33,331.66C505.44,333.71 508.25,337.54 509.59,340.17C510.92,342.81 512.68,347.78 513.49,351.23C514.31,354.68 514.98,359.58 514.99,362.12C514.99,364.67 514.31,368.71 513.46,371.11C512.61,373.51 510.70,376.76 509.21,378.33C507.72,379.90 504.70,382.11 502.50,383.24C500.00,384.53 496.05,385.42 492.00,385.62zM327.33,376.94C327.78,376.97 329.47,375.68 331.08,374.08C333.59,371.56 334.00,370.39 334.00,365.72C334.00,361.73 333.40,359.40 331.72,356.90C330.11,354.50 328.55,353.41 326.44,353.20C324.25,352.99 322.77,353.62 320.97,355.53C318.88,357.75 318.50,359.14 318.50,364.48C318.50,369.38 318.95,371.29 320.50,373.01C321.60,374.24 323.40,375.60 324.50,376.05C325.60,376.50 326.87,376.90 327.33,376.94zM492.71,358.81C494.14,358.64 496.21,357.27 497.33,355.78C498.68,353.96 499.38,351.42 499.43,348.13C499.48,344.62 498.95,342.61 497.60,341.11C496.55,339.95 494.47,339.00 492.97,339.00C491.47,339.00 489.70,339.66 489.03,340.46C488.36,341.27 487.57,344.63 487.27,347.93C486.85,352.58 487.11,354.52 488.43,356.53C489.66,358.42 490.83,359.04 492.71,358.81zM600.97,330.52C600.52,330.79 599.49,330.34 598.66,329.52C597.84,328.70 596.87,326.68 596.51,325.05C596.15,323.42 594.40,320.81 592.63,319.24C590.85,317.68 587.95,315.81 586.20,315.08C584.44,314.35 583.00,313.02 583.00,312.13C583.00,311.23 584.98,309.25 587.40,307.72C590.96,305.47 592.33,303.70 594.56,298.44C596.08,294.87 597.80,292.10 598.37,292.29C598.95,292.48 600.77,295.76 602.42,299.57C604.08,303.38 605.89,306.83 606.46,307.23C607.03,307.64 608.85,307.98 610.50,308.00C612.15,308.02 614.11,308.42 614.85,308.89C615.59,309.36 616.04,310.59 615.85,311.62C615.64,312.74 613.42,314.47 610.34,315.90C607.51,317.22 604.72,319.32 604.15,320.56C603.59,321.80 602.82,324.44 602.45,326.42C602.08,328.40 601.41,330.25 600.97,330.52zM318.27,247.95C318.70,247.98 322.25,246.39 326.16,244.42C330.06,242.45 337.71,239.11 343.14,236.99C348.57,234.88 356.72,232.23 361.26,231.12C365.79,230.00 373.77,228.40 379.00,227.55C384.23,226.70 394.35,226.01 401.50,226.01C408.65,226.01 419.00,226.69 424.50,227.52C430.00,228.35 438.68,230.21 443.80,231.66C449.64,233.32 453.45,233.95 454.04,233.36C454.56,232.84 457.02,226.83 459.49,220.01C461.97,213.20 464.00,206.86 464.00,205.93C464.00,204.55 462.64,204.11 456.75,203.59C452.76,203.23 442.98,202.51 435.00,201.99C427.02,201.46 419.49,201.02 418.26,201.01C416.59,201.00 414.19,198.52 408.83,191.25C404.88,185.89 398.19,177.22 393.96,172.00C389.73,166.78 385.37,161.70 384.26,160.71C383.11,159.69 377.44,157.90 370.88,156.51C364.62,155.18 357.93,153.56 356.00,152.91C354.07,152.26 352.20,151.45 351.82,151.11C351.45,150.78 349.67,140.90 347.87,129.17C346.07,117.44 344.13,107.22 343.55,106.47C342.67,105.32 341.02,105.40 333.22,106.98C328.11,108.02 319.79,110.08 314.72,111.56C309.65,113.04 299.88,116.48 293.00,119.20C286.12,121.91 275.10,126.77 268.50,129.99C261.90,133.21 254.36,137.21 251.75,138.90C247.00,141.96 247.00,141.96 247.00,148.04C247.00,151.39 247.42,154.92 247.94,155.89C248.46,156.87 251.69,158.48 255.19,159.52C260.50,161.10 262.49,162.40 267.76,167.71C274.01,174.03 274.01,174.03 291.08,174.89C301.69,175.43 308.60,176.19 309.33,176.92C310.03,177.63 310.63,182.39 310.83,188.90C311.17,199.70 311.17,199.70 297.33,201.41C289.73,202.35 282.49,203.54 281.25,204.04C279.95,204.57 279.00,205.82 279.00,207.01C279.00,208.34 285.81,215.94 298.25,228.48C308.84,239.17 317.85,247.93 318.27,247.95zM472.84,185.00C473.28,185.00 476.73,179.49 480.51,172.75C484.28,166.01 490.95,154.88 495.33,148.00C499.70,141.12 505.17,133.03 507.49,130.00C509.80,126.97 512.25,123.45 512.93,122.16C513.61,120.88 514.01,119.70 513.83,119.53C513.65,119.37 510.80,117.89 507.50,116.24C504.20,114.59 497.76,112.06 493.20,110.62C488.63,109.18 484.05,108.00 483.02,108.00C481.98,108.00 480.90,108.79 480.61,109.75C480.32,110.71 479.41,115.78 478.60,121.00C477.13,130.40 477.06,130.55 472.31,134.91C469.66,137.34 464.82,141.31 461.55,143.73C458.27,146.16 455.07,148.90 454.44,149.82C453.80,150.74 452.06,156.78 450.57,163.23C449.08,169.68 448.10,175.35 448.39,175.83C448.69,176.31 452.74,176.99 457.38,177.35C462.03,177.71 466.56,178.28 467.45,178.62C468.34,178.96 469.74,180.54 470.56,182.12C471.38,183.70 472.41,185.00 472.84,185.00zM419.17,169.78C419.71,169.60 421.91,165.23 424.07,160.07C426.23,154.92 428.00,150.32 428.00,149.85C428.00,149.38 426.90,149.00 425.55,149.00C424.20,149.00 420.77,149.50 417.93,150.11C412.77,151.22 412.77,151.22 413.28,154.86C413.56,156.86 414.78,161.11 415.99,164.30C417.19,167.49 418.63,169.96 419.17,169.78z" />

</svg>