<?xml version="1.0" encoding="utf-8"?><svg width="25" height="25" xmlns="http://www.w3.org/2000/svg"><g style="display:inline"><g style="stroke-width:.908489"><g style="display:inline;stroke-width:.82142"><path style="stroke:#fff;stroke-width:1.08667;stroke-linecap:round;stroke-linejoin:round;stroke-miterlimit:4;stroke-dasharray:none;paint-order:stroke markers fill" d="M3.757 2.206h.953v1.882s-.008.591-.477.591c-.468 0-.476-.59-.476-.59zm2.675 4.4L4.233 5.74l-2.199.864.584-1.442-1.327-.58 1.24-.376-.217-1.114 1.92.71 1.918-.71-.216 1.114 1.24.376-1.327.58Zm.373-1.484c.31 1.096-.968 1.76-2.572 1.76-1.603 0-2.88-.668-2.571-1.76.263-.933 1.094-.264 2.583-.264 1.49 0 2.296-.669 2.56.264z" transform="matrix(3.58605 0 0 3.60495 -2.682 -3.88)"/></g><g style="display:inline;stroke-width:.82142"><path style="stroke:#fff;stroke-width:.652002;stroke-linecap:round;stroke-linejoin:round;stroke-miterlimit:4;stroke-dasharray:none;paint-order:stroke markers fill" d="M6.805 5.122c.31 1.096-.968 1.76-2.572 1.76-1.603 0-2.88-.668-2.571-1.76.263-.933 1.094-.264 2.583-.264 1.49 0 2.296-.669 2.56.264z" transform="matrix(3.58605 0 0 3.60495 -2.682 -3.88)"/><path style="stroke:#fff;stroke-width:.652002;stroke-linecap:round;stroke-linejoin:round;stroke-miterlimit:4;stroke-dasharray:none;paint-order:stroke markers fill" d="m6.432 6.605-2.199-.864-2.199.864.584-1.442-1.327-.58 1.24-.376-.217-1.114 1.92.71 1.918-.71-.216 1.114 1.24.376-1.327.58z" transform="matrix(3.58605 0 0 3.60495 -2.682 -3.88)"/><path style="stroke:#fff;stroke-width:.652002;stroke-linecap:round;stroke-linejoin:round;stroke-miterlimit:4;stroke-dasharray:none;paint-order:stroke markers fill" d="M3.757 2.206h.953v1.882s-.008.591-.477.591c-.468 0-.476-.59-.476-.59z" transform="matrix(3.58605 0 0 3.60495 -2.682 -3.88)"/></g></g></g></svg>